<?xml version="1.0" encoding="iso-8859-1"?>
<!-- Generator: Adobe Illustrator 17.1.0, SVG Export Plug-In . SVG Version: 6.00 Build 0)  -->
<!DOCTYPE svg PUBLIC "-//W3C//DTD SVG 1.1//EN" "http://www.w3.org/Graphics/SVG/1.1/DTD/svg11.dtd">
<svg version="1.1" id="Capa_1" xmlns="http://www.w3.org/2000/svg" xmlns:xlink="http://www.w3.org/1999/xlink" x="0px" y="0px"
	 viewBox="0 0 207.425 207.425" style="enable-background:new 0 0 207.425 207.425;" xml:space="preserve">
<path d="M32.387,86.533c0,2.49-2.147,4.517-4.786,4.517s-4.786-2.026-4.786-4.517c0-2.491,2.147-4.518,4.786-4.518
	S32.387,84.042,32.387,86.533z M207.425,44.168c0,2.762-2.239,5-5,5H129.04v15.772h6.993c5.673,0,10.289,4.615,10.289,10.289v3.854
	c0,0.132-0.015,0.26-0.02,0.391c7.507,0.436,14.609,2.394,21.018,5.553c0.71,0.138,1.389,0.419,1.982,0.848
	c0.068,0.049,0.412,0.301,0.935,0.702c16.623,9.474,27.864,27.349,27.864,47.814v0.706c0,9.045-7.358,16.403-16.403,16.403h-7.245
	l1.392,6.449c0.022,0.103,0.019,0.205,0.035,0.308h10.489c2.761,0,5,2.238,5,5s-2.239,5-5,5h-69.287c-2.761,0-5-2.238-5-5
	s2.239-5,5-5h9.681c0.016-0.103,0.012-0.204,0.035-0.308l1.59-7.366c-22.751-3.91-42.015-20.117-49.458-42.335l-29.656-6.273
	c-4.925,6.361-12.806,10.491-21.674,10.491c-14.886,0-26.997-11.634-26.997-25.933c0-5.314,1.675-10.259,4.542-14.377
	c-0.189-0.335-0.342-0.692-0.451-1.07l-4.5-15.618c-0.435-1.51-0.135-3.136,0.81-4.392C1.95,49.822,3.429,49.084,5,49.084h7.576
	c2.002,0,3.811,1.194,4.598,3.035l3.949,9.242c2.077-0.493,4.246-0.76,6.479-0.76c12.3,0,22.698,7.946,25.942,18.772h24.74
	c-0.003-0.097-0.015-0.191-0.015-0.289V75.23c0-5.674,4.616-10.289,10.289-10.289h21.538V49.168H36.71c-2.761,0-5-2.238-5-5
	s2.239-5,5-5h78.384h8.945h78.385C205.186,39.168,207.425,41.407,207.425,44.168z M42.387,86.533
	c0-8.005-6.633-14.518-14.786-14.518s-14.786,6.513-14.786,14.518s6.633,14.517,14.786,14.517S42.387,94.538,42.387,86.533z
	 M143.92,98.626l4.457,11.061c2.423,6.014,8.178,9.899,14.662,9.899h20.613c-1.582-3.773-3.817-8.473-6.407-12.105
	c-3.945-5.536-9.974-10.534-12.559-12.556h-18.267c-1.246,0-1.934,0.743-2.233,1.187S143.455,97.471,143.92,98.626z
	 M136.962,158.256h28.72l-1.458-6.757h-25.189c-0.205,0-0.407-0.01-0.612-0.012L136.962,158.256z M125.601,100.118l-6.18,0.006
	v-6.18c0-3.704-3.003-6.707-6.707-6.707h-0.838c-3.704,0-6.707,3.003-6.707,6.707v6.193l-6.193,0.006
	c-3.704,0.003-6.704,3.009-6.701,6.713l0.001,0.838c0.003,3.704,3.009,6.704,6.713,6.701l6.18-0.006v6.18
	c0,3.704,3.003,6.707,6.707,6.707h0.838c3.704,0,6.707-3.003,6.707-6.707v-6.193l6.193-0.006c3.704-0.003,6.704-3.009,6.701-6.713
	l-0.001-0.838C132.31,103.115,129.305,100.115,125.601,100.118z"/>
<g>
</g>
<g>
</g>
<g>
</g>
<g>
</g>
<g>
</g>
<g>
</g>
<g>
</g>
<g>
</g>
<g>
</g>
<g>
</g>
<g>
</g>
<g>
</g>
<g>
</g>
<g>
</g>
<g>
</g>
</svg>
